<svg width="100" height="75" viewBox="0 0 412 175" fill="none" xmlns="http://www.w3.org/2000/svg">
<path d="M311.457 155.721L373.39 93.977L311.457 32.233L330.339 13.414L411.154 93.977L330.339 174.54L311.457 155.721Z" fill="#000"/>
<path d="M159.771 69.2068H134.595V94.3828H159.771V69.2068Z" fill="#aaa"/>
<path d="M260.979 69.2068H235.803V94.3828H260.979V69.2068Z" fill="#aaa"/>
<path d="M210.375 69.2068H185.199V94.3828H210.375V69.2068Z" fill="#aaa"/>
<path d="M100.482 155.092L38.486 93.348L100.419 31.604L81.537 12.785L0.785004 93.348L81.6 173.911L100.482 155.092Z" fill="#000"/>
<path d="M311.457 143.763L373.39 82.019L311.457 20.274L330.339 1.455L411.154 82.019L330.339 162.582L311.457 143.763Z" fill="#aaa"/>
<path d="M134.595 86.4242H159.771V61.2482H134.595L134.595 86.4242ZM260.979 61.2482H235.803V86.4242H260.979V61.2482ZM185.199 86.4242H210.375V61.2482H185.199V86.4242Z" fill="#000"/>
<path d="M100.482 143.133L38.486 81.389L100.419 19.645L81.537 0.825989L0.785004 81.389L81.6 161.952L100.482 143.133Z" fill="#aaa"/>
</svg>
