<svg width="200px" height="50px" xmlns="http://www.w3.org/2000/svg" viewBox="49.531292724609386 5.799996948242182 400.9374145507812 138.40000610351564" style="background: none;" preserveAspectRatio="xMidYMid"><defs><filter id="editing-extrusion" x="-100%" y="-100%" width="300%" height="300%"><feFlood result="color1" flood-color="#4dc49c"></feFlood><feConvolveMatrix order="6,6" divisor="1" kernelMatrix="1 0 0 0 0 0 0 1 0 0 0 0 0 0 1 0 0 0 0 0 0 1 0 0 0 0 0 0 1 0 0 0 0 0 0 1" in="SourceAlpha" result="extrude"></feConvolveMatrix><feComposite in="color1" in2="extrude" result="comp-extrude" operator="in"></feComposite><feOffset dx="3" dy="3" in="comp-extrude" result="offset-extrude"></feOffset><feMerge><feMergeNode in="offset-extrude"></feMergeNode><feMergeNode in="SourceGraphic"></feMergeNode></feMerge></filter></defs><g filter="url(#editing-extrusion)"><g transform="translate(108.38997888565063, 97.8749942779541)"><path d="M8.13-32.50L8.13-39.94L13.50-39.94L13.50-32.50L24.44-32.50L24.44-27.97L13.50-27.97L13.50-9.31L13.50-9.31Q13.50-7.44 13.61-6.45L13.61-6.45L13.61-6.45Q13.72-5.47 14.16-4.91L14.16-4.91L14.16-4.91Q14.97-3.78 17.44-3.78L17.44-3.78L17.44-3.78Q18.81-3.78 20.09-4.06L20.09-4.06L20.09-4.06Q21.41-4.34 22.50-4.69L22.50-4.69L22.50-4.69Q23.38-2.78 24.09-0.50L24.09-0.50L24.09-0.50Q20.41 0.75 16.66 0.75L16.66 0.75L16.66 0.75Q13.94 0.75 12.30 0.14L12.30 0.14L12.30 0.14Q10.66-0.47 9.72-1.84L9.72-1.84L9.72-1.84Q8.75-3.28 8.44-5.28L8.44-5.28L8.44-5.28Q8.13-7.28 8.13-10.81L8.13-10.81L8.13-27.97L3.44-27.97L3.44-32.50L8.13-32.50ZM54.91-6.03L56.47-1.81L56.47-1.81Q53-0.44 49.95 0.16L49.95 0.16L49.95 0.16Q46.91 0.75 44.50 0.75L44.50 0.75L44.50 0.75Q40.81 0.75 38.06-0.42L38.06-0.42L38.06-0.42Q35.31-1.59 33.48-3.72L33.48-3.72L33.48-3.72Q31.66-5.84 30.73-8.80L30.73-8.80L30.73-8.80Q29.81-11.75 29.81-15.31L29.81-15.31L29.81-15.31Q29.81-17.50 30.13-19.69L30.13-19.69L30.13-19.69Q30.44-21.88 31.13-23.86L31.13-23.86L31.13-23.86Q31.81-25.84 32.92-27.56L32.92-27.56L32.92-27.56Q34.03-29.28 35.63-30.53L35.63-30.53L35.63-30.53Q37.22-31.78 39.34-32.50L39.34-32.50L39.34-32.50Q41.47-33.22 44.19-33.22L44.19-33.22L44.19-33.22Q51.16-33.22 54.69-28.86L54.69-28.86L54.69-28.86Q58.22-24.50 58.22-16.38L58.22-16.38L58.22-14.66L35.34-14.66L35.34-14.66Q35.34-12.03 35.91-10.02L35.91-10.02L35.91-10.02Q36.47-8 37.64-6.61L37.64-6.61L37.64-6.61Q38.81-5.22 40.61-4.50L40.61-4.50L40.61-4.50Q42.41-3.78 44.88-3.78L44.88-3.78L44.88-3.78Q46.25-3.78 47.61-3.98L47.61-3.98L47.61-3.98Q48.97-4.19 50.25-4.52L50.25-4.52L50.25-4.52Q51.53-4.84 52.70-5.25L52.70-5.25L52.70-5.25Q53.88-5.66 54.91-6.03L54.91-6.03ZM35.50-18.97L52.81-18.97L52.81-18.97Q52.56-24.03 50.39-26.36L50.39-26.36L50.39-26.36Q48.22-28.69 44.19-28.69L44.19-28.69L44.19-28.69Q40.16-28.69 38.05-26.36L38.05-26.36L38.05-26.36Q35.94-24.03 35.50-18.97L35.50-18.97ZM87.97-5.53L89.31-1.16L89.31-1.16Q86.88-0.31 84.11 0.22L84.11 0.22L84.11 0.22Q81.34 0.75 78.88 0.75L78.88 0.75L78.88 0.75Q75.13 0.75 72.38-0.34L72.38-0.34L72.38-0.34Q69.63-1.44 67.83-3.53L67.83-3.53L67.83-3.53Q66.03-5.63 65.16-8.67L65.16-8.67L65.16-8.67Q64.28-11.72 64.28-15.63L64.28-15.63L64.28-15.63Q64.28-19.88 65.36-23.16L65.36-23.16L65.36-23.16Q66.44-26.44 68.48-28.67L68.48-28.67L68.48-28.67Q70.53-30.91 73.48-32.06L73.48-32.06L73.48-32.06Q76.44-33.22 80.19-33.22L80.19-33.22L80.19-33.22Q82.09-33.22 84.06-32.83L84.06-32.83L84.06-32.83Q86.03-32.44 88.06-31.84L88.06-31.84L86.72-27.47L86.72-27.47Q85.09-28 83.70-28.31L83.70-28.31L83.70-28.31Q82.31-28.63 80.78-28.63L80.78-28.63L80.78-28.63Q75.47-28.63 72.59-25.55L72.59-25.55L72.59-25.55Q69.72-22.47 69.72-16.25L69.72-16.25L69.72-16.25Q69.72-13.34 70.14-11.05L70.14-11.05L70.14-11.05Q70.56-8.75 71.64-7.14L71.64-7.14L71.64-7.14Q72.72-5.53 74.58-4.69L74.58-4.69L74.58-4.69Q76.44-3.84 79.31-3.84L79.31-3.84L79.31-3.84Q81.19-3.84 83.36-4.33L83.36-4.33L83.36-4.33Q85.53-4.81 87.97-5.53L87.97-5.53ZM97.22 0L97.22-45L102.59-45L102.59-25.41L102.59-25.41Q104.69-28.97 107.34-30.97L107.34-30.97L107.34-30.97Q110.38-33.22 113.38-33.22L113.38-33.22L113.38-33.22Q117.88-33.22 120.38-30.97L120.38-30.97L120.38-30.97Q122.53-29.03 123.34-25.13L123.34-25.13L123.34-25.13Q123.97-22.16 123.97-17.13L123.97-17.13L123.97 0L118.59 0L118.59-18.63L118.59-18.63Q118.59-20.53 118.50-21.77L118.50-21.77L118.50-21.77Q118.41-23 118.05-24.36L118.05-24.36L118.05-24.36Q117.69-25.72 117.02-26.48L117.02-26.48L117.02-26.48Q116.34-27.25 115.14-27.75L115.14-27.75L115.14-27.75Q113.94-28.25 112.22-28.25L112.22-28.25L112.22-28.25Q109.25-28.25 106.50-25.44L106.50-25.44L106.50-25.44Q104.75-23.66 102.59-20L102.59-20L102.59 0L97.22 0ZM142.88-33.22L142.88-33.22L142.88-33.22Q145.44-33.22 148.02-32.69L148.02-32.69L148.02-32.69Q150.59-32.16 152.81-31.22L152.81-31.22L152.81-31.22Q152.38-30.22 151.91-29.25L151.91-29.25L151.91-29.25Q151.44-28.28 150.88-27.34L150.88-27.34L150.88-27.34Q150.09-27.66 149.14-27.97L149.14-27.97L149.14-27.97Q148.19-28.28 147.14-28.50L147.14-28.50L147.14-28.50Q146.09-28.72 144.98-28.86L144.98-28.86L144.98-28.86Q143.88-29 142.81-29L142.81-29L142.81-29Q141.66-29 140.58-28.77L140.58-28.77L140.58-28.77Q139.50-28.53 138.67-28L138.67-28L138.67-28Q137.84-27.47 137.34-26.61L137.34-26.61L137.34-26.61Q136.84-25.75 136.84-24.47L136.84-24.47L136.84-24.47Q136.84-23.16 137.41-22.27L137.41-22.27L137.41-22.27Q137.97-21.38 138.94-20.78L138.94-20.78L138.94-20.78Q139.91-20.19 141.20-19.78L141.20-19.78L141.20-19.78Q142.50-19.38 143.97-19.03L143.97-19.03L143.97-19.03Q146.25-18.47 148.22-17.77L148.22-17.77L148.22-17.77Q150.19-17.06 151.63-15.94L151.63-15.94L151.63-15.94Q153.06-14.81 153.88-13.16L153.88-13.16L153.88-13.16Q154.69-11.50 154.69-9.06L154.69-9.06L154.69-9.06Q154.69-6.50 153.67-4.66L153.67-4.66L153.67-4.66Q152.66-2.81 150.92-1.61L150.92-1.61L150.92-1.61Q149.19-0.41 146.88 0.17L146.88 0.17L146.88 0.17Q144.56 0.75 141.94 0.75L141.94 0.75L141.94 0.75Q140.56 0.75 139.11 0.58L139.11 0.58L139.11 0.58Q137.66 0.41 136.23 0.08L136.23 0.08L136.23 0.08Q134.81-0.25 133.44-0.72L133.44-0.72L133.44-0.72Q132.06-1.19 130.84-1.75L130.84-1.75L130.84-1.75Q131.28-2.75 131.77-3.70L131.77-3.70L131.77-3.70Q132.25-4.66 132.78-5.59L132.78-5.59L132.78-5.59Q133.81-5.16 134.97-4.77L134.97-4.77L134.97-4.77Q136.13-4.38 137.34-4.09L137.34-4.09L137.34-4.09Q138.56-3.81 139.75-3.64L139.75-3.64L139.75-3.64Q140.94-3.47 142.03-3.47L142.03-3.47L142.03-3.47Q143.41-3.47 144.70-3.78L144.70-3.78L144.70-3.78Q146-4.09 147.02-4.77L147.02-4.77L147.02-4.77Q148.03-5.44 148.64-6.50L148.64-6.50L148.64-6.50Q149.25-7.56 149.25-9.06L149.25-9.06L149.25-9.06Q149.25-10.47 148.67-11.38L148.67-11.38L148.67-11.38Q148.09-12.28 147.13-12.89L147.13-12.89L147.13-12.89Q146.16-13.50 144.86-13.89L144.86-13.89L144.86-13.89Q143.56-14.28 142.13-14.63L142.13-14.63L142.13-14.63Q139.94-15.16 137.98-15.84L137.98-15.84L137.98-15.84Q136.03-16.53 134.58-17.64L134.58-17.64L134.58-17.64Q133.13-18.75 132.27-20.39L132.27-20.39L132.27-20.39Q131.41-22.03 131.41-24.47L131.41-24.47L131.41-24.47Q131.41-26.75 132.34-28.41L132.34-28.41L132.34-28.41Q133.28-30.06 134.86-31.13L134.86-31.13L134.86-31.13Q136.44-32.19 138.52-32.70L138.52-32.70L138.52-32.70Q140.59-33.22 142.88-33.22ZM165.94-32.50L165.94-39.94L171.31-39.94L171.31-32.50L182.25-32.50L182.25-27.97L171.31-27.97L171.31-9.31L171.31-9.31Q171.31-7.44 171.42-6.45L171.42-6.45L171.42-6.45Q171.53-5.47 171.97-4.91L171.97-4.91L171.97-4.91Q172.78-3.78 175.25-3.78L175.25-3.78L175.25-3.78Q176.63-3.78 177.91-4.06L177.91-4.06L177.91-4.06Q179.22-4.34 180.31-4.69L180.31-4.69L180.31-4.69Q181.19-2.78 181.91-0.50L181.91-0.50L181.91-0.50Q178.22 0.75 174.47 0.75L174.47 0.75L174.47 0.75Q171.75 0.75 170.11 0.14L170.11 0.14L170.11 0.14Q168.47-0.47 167.53-1.84L167.53-1.84L167.53-1.84Q166.56-3.28 166.25-5.28L166.25-5.28L166.25-5.28Q165.94-7.28 165.94-10.81L165.94-10.81L165.94-27.97L161.25-27.97L161.25-32.50L165.94-32.50ZM191.88-26.75L191.88-26.75L190.50-31.13L190.50-31.13Q195.75-33.22 201.50-33.22L201.50-33.22L201.50-33.22Q206.53-33.22 209.19-31.53L209.19-31.53L209.19-31.53Q212.22-29.59 212.22-24.94L212.22-24.94L212.22-12.16L212.22-12.16Q212.22-9.59 212.28-6.91L212.28-6.91L212.28-6.91Q212.31-5.31 212.59-3.59L212.59-3.59L212.59-3.59Q212.84-1.97 213.25-0.50L213.25-0.50L208.13 0.63L208.13 0.63Q207.41-1.47 207.22-4.06L207.22-4.06L206.59-4.13L206.59-4.13Q202.72 0.75 196.72 0.75L196.72 0.75L196.72 0.75Q192.34 0.75 189.69-1.67L189.69-1.67L189.69-1.67Q187.03-4.09 187.03-8.50L187.03-8.50L187.03-8.50Q187.03-11.78 188.48-13.88L188.48-13.88L188.48-13.88Q189.94-15.97 192.59-17.41L192.59-17.41L192.59-17.41Q196.78-19.69 204.31-19.69L204.31-19.69L204.31-19.69Q205.31-19.69 207-19.63L207-19.63L207-24.38L207-24.38Q207-26.63 205.63-27.63L205.63-27.63L205.63-27.63Q204.25-28.63 201.31-28.63L201.31-28.63L201.31-28.63Q197.03-28.63 191.88-26.75ZM207-9.13L207-9.13L207-15.69L207-15.69Q206.16-15.75 204.53-15.75L204.53-15.75L204.53-15.75Q201.78-15.75 199.47-15.28L199.47-15.28L199.47-15.28Q196.03-14.59 194.14-13.11L194.14-13.11L194.14-13.11Q192.25-11.63 192.25-8.84L192.25-8.84L192.25-8.84Q192.25-3.84 197.69-3.84L197.69-3.84L197.69-3.84Q200.50-3.84 202.94-5.34L202.94-5.34L202.94-5.34Q204.94-6.59 207-9.13ZM243.88-5.53L245.22-1.16L245.22-1.16Q242.78-0.31 240.02 0.22L240.02 0.22L240.02 0.22Q237.25 0.75 234.78 0.75L234.78 0.75L234.78 0.75Q231.03 0.75 228.28-0.34L228.28-0.34L228.28-0.34Q225.53-1.44 223.73-3.53L223.73-3.53L223.73-3.53Q221.94-5.63 221.06-8.67L221.06-8.67L221.06-8.67Q220.19-11.72 220.19-15.63L220.19-15.63L220.19-15.63Q220.19-19.88 221.27-23.16L221.27-23.16L221.27-23.16Q222.34-26.44 224.39-28.67L224.39-28.67L224.39-28.67Q226.44-30.91 229.39-32.06L229.39-32.06L229.39-32.06Q232.34-33.22 236.09-33.22L236.09-33.22L236.09-33.22Q238-33.22 239.97-32.83L239.97-32.83L239.97-32.83Q241.94-32.44 243.97-31.84L243.97-31.84L242.63-27.47L242.63-27.47Q241-28 239.61-28.31L239.61-28.31L239.61-28.31Q238.22-28.63 236.69-28.63L236.69-28.63L236.69-28.63Q231.38-28.63 228.50-25.55L228.50-25.55L228.50-25.55Q225.63-22.47 225.63-16.25L225.63-16.25L225.63-16.25Q225.63-13.34 226.05-11.05L226.05-11.05L226.05-11.05Q226.47-8.75 227.55-7.14L227.55-7.14L227.55-7.14Q228.63-5.53 230.48-4.69L230.48-4.69L230.48-4.69Q232.34-3.84 235.22-3.84L235.22-3.84L235.22-3.84Q237.09-3.84 239.27-4.33L239.27-4.33L239.27-4.33Q241.44-4.81 243.88-5.53L243.88-5.53ZM252.94 0L252.94-45L258.31-45L258.31-17.94L272.94-33.22L276.47-29.78L263.81-16.75L279.78 0L273.09 0L258.31-15.63L258.31 0L252.94 0Z" fill="#ffffff"></path></g></g></svg>