<svg width="733" height="426" viewBox="0 0 733 426" fill="none" xmlns="http://www.w3.org/2000/svg">
<path d="M677.371 0H44.5634C42.2761 -2.59827e-06 40.0112 0.450314 37.898 1.32524C35.7849 2.20016 33.8647 3.48256 32.2474 5.09921C30.63 6.71586 29.3471 8.63511 28.4718 10.7474C27.5964 12.8596 27.1459 15.1235 27.1459 17.4098V369.843C27.1459 372.129 27.5964 374.393 28.4717 376.505C29.347 378.618 30.63 380.537 32.2474 382.154C33.8647 383.77 35.7848 385.053 37.898 385.928C40.0112 386.803 42.2761 387.253 44.5634 387.253H677.371C681.99 387.253 686.421 385.419 689.687 382.154C692.953 378.889 694.788 374.46 694.788 369.843V17.4098C694.788 12.7924 692.953 8.3642 689.687 5.09922C686.421 1.83425 681.99 2.62373e-06 677.371 0V0Z" fill="#3F3D56"/>
<path d="M671.437 30.768H50.4975V380.887H671.437V30.768Z" fill="white"/>
<path d="M360.436 21.2193C363.954 21.2193 366.805 18.3693 366.805 14.8535C366.805 11.3378 363.954 8.48775 360.436 8.48775C356.919 8.48775 354.068 11.3378 354.068 14.8535C354.068 18.3693 356.919 21.2193 360.436 21.2193Z" fill="white"/>
<path d="M493.859 380.888H50.4975V30.7686L493.859 380.888Z" fill="#F2F2F2"/>
<path d="M147.656 354.688C180.62 354.688 207.343 327.977 207.343 295.027C207.343 262.078 180.62 235.367 147.656 235.367C114.692 235.367 87.9693 262.078 87.9693 295.027C87.9693 327.977 114.692 354.688 147.656 354.688Z" fill="#6C63FF"/>
<path d="M160.943 339.868C146.259 339.868 131.904 335.515 119.695 327.361C107.485 319.206 97.9694 307.616 92.35 294.056C86.7306 280.495 85.2604 265.574 88.1251 251.178C90.9899 236.783 98.0609 223.559 108.444 213.181C118.827 202.802 132.057 195.734 146.459 192.87C160.86 190.007 175.789 191.477 189.355 197.094C202.921 202.71 214.517 212.222 222.675 224.426C230.833 236.63 235.187 250.978 235.187 265.656C235.187 275.402 233.267 285.052 229.536 294.056C225.805 303.059 220.336 311.24 213.441 318.132C206.547 325.023 198.363 330.489 189.355 334.219C180.347 337.948 170.693 339.868 160.943 339.868V339.868ZM160.943 192.415C146.451 192.415 132.284 196.71 120.234 204.758C108.184 212.806 98.7925 224.245 93.2466 237.628C87.7007 251.011 86.2496 265.737 89.0769 279.945C91.9042 294.152 98.8828 307.203 109.13 317.446C119.378 327.689 132.434 334.664 146.648 337.49C160.861 340.316 175.594 338.866 188.983 333.322C202.372 327.779 213.816 318.391 221.868 306.347C229.919 294.302 234.217 280.142 234.217 265.656C234.217 256.038 232.321 246.514 228.639 237.628C224.957 228.742 219.559 220.668 212.755 213.867C205.951 207.065 197.873 201.671 188.983 197.99C180.093 194.309 170.565 192.415 160.943 192.415L160.943 192.415Z" fill="#3F3D56"/>
<path d="M527.691 212.665H469.689V224.78H527.691V212.665Z" fill="#3F3D56"/>
<path d="M582.567 147.033H414.813V152.225H582.567V147.033Z" fill="#3F3D56"/>
<path d="M582.567 167.432H414.813V172.624H582.567V167.432Z" fill="#3F3D56"/>
<path d="M582.567 187.83H414.813V193.022H582.567V187.83Z" fill="#3F3D56"/>
<path d="M627.505 51.7212H603.265V75.9503H627.505V51.7212Z" fill="#6C63FF"/>
<path d="M638.759 87.1996H609.325V57.7784H638.759V87.1996ZM610.605 85.9205H637.48V59.0576H610.605L610.605 85.9205Z" fill="#CCCCCC"/>
<path d="M712.223 374.521H651.623V370.157C651.623 370.043 651.601 369.931 651.557 369.826C651.514 369.721 651.45 369.626 651.37 369.545C651.289 369.465 651.194 369.401 651.089 369.358C650.984 369.314 650.871 369.292 650.758 369.292H629.98C629.867 369.292 629.754 369.314 629.649 369.358C629.544 369.401 629.449 369.465 629.368 369.545C629.288 369.625 629.224 369.721 629.181 369.826C629.137 369.931 629.115 370.043 629.115 370.157V374.521H616.129V370.157C616.129 370.043 616.107 369.931 616.063 369.826C616.02 369.721 615.956 369.625 615.876 369.545C615.795 369.465 615.7 369.401 615.595 369.358C615.49 369.314 615.377 369.292 615.264 369.292H594.487C594.373 369.292 594.26 369.314 594.155 369.358C594.05 369.401 593.955 369.465 593.874 369.545C593.794 369.626 593.73 369.721 593.687 369.826C593.643 369.931 593.621 370.043 593.621 370.157V370.157V374.521H580.635V370.157C580.635 370.043 580.613 369.931 580.569 369.826C580.526 369.721 580.462 369.626 580.382 369.545C580.301 369.465 580.206 369.401 580.101 369.358C579.996 369.314 579.883 369.292 579.77 369.292H558.992C558.879 369.292 558.766 369.314 558.661 369.358C558.556 369.401 558.461 369.465 558.38 369.545C558.3 369.625 558.236 369.721 558.193 369.826C558.149 369.931 558.127 370.043 558.127 370.157V370.157V374.521H545.141V370.157C545.141 370.043 545.119 369.931 545.075 369.826C545.032 369.721 544.968 369.625 544.888 369.545C544.807 369.465 544.712 369.401 544.607 369.358C544.502 369.314 544.389 369.292 544.275 369.292H523.498C523.385 369.292 523.272 369.314 523.167 369.358C523.062 369.401 522.967 369.465 522.886 369.545C522.806 369.625 522.742 369.721 522.699 369.826C522.655 369.931 522.633 370.043 522.633 370.157V374.521H509.647V370.157C509.647 370.043 509.625 369.931 509.581 369.826C509.538 369.721 509.474 369.625 509.394 369.545C509.313 369.465 509.218 369.401 509.113 369.358C509.008 369.314 508.895 369.292 508.781 369.292H488.004C487.891 369.292 487.778 369.314 487.673 369.358C487.568 369.401 487.473 369.465 487.392 369.545C487.312 369.626 487.248 369.721 487.205 369.826C487.161 369.931 487.139 370.043 487.139 370.157V370.157V374.521H474.153V370.157C474.153 370.043 474.131 369.931 474.087 369.826C474.044 369.721 473.98 369.626 473.899 369.545C473.819 369.465 473.724 369.401 473.619 369.358C473.514 369.314 473.401 369.292 473.287 369.292H452.51C452.397 369.292 452.284 369.314 452.179 369.358C452.074 369.401 451.978 369.465 451.898 369.545C451.818 369.625 451.754 369.721 451.71 369.826C451.667 369.931 451.645 370.043 451.645 370.157V370.157V374.521H438.659V370.157C438.659 370.043 438.637 369.931 438.593 369.826C438.55 369.721 438.486 369.625 438.405 369.545C438.325 369.465 438.23 369.401 438.125 369.358C438.019 369.314 437.907 369.292 437.793 369.292H275.04C274.926 369.292 274.814 369.314 274.709 369.358C274.604 369.401 274.508 369.465 274.428 369.545C274.347 369.626 274.284 369.721 274.24 369.826C274.197 369.931 274.174 370.043 274.174 370.157V370.157V374.521H261.189V370.157C261.189 370.043 261.166 369.931 261.123 369.826C261.079 369.721 261.015 369.626 260.935 369.545C260.855 369.465 260.759 369.401 260.654 369.358C260.549 369.314 260.437 369.292 260.323 369.292H239.546C239.432 369.292 239.32 369.314 239.215 369.358C239.109 369.401 239.014 369.465 238.934 369.545C238.853 369.625 238.79 369.721 238.746 369.826C238.702 369.931 238.68 370.043 238.68 370.157V370.157V374.521H225.694V370.157C225.694 370.043 225.672 369.931 225.629 369.826C225.585 369.721 225.521 369.626 225.441 369.545C225.361 369.465 225.265 369.401 225.16 369.358C225.055 369.314 224.943 369.292 224.829 369.292H204.052C203.938 369.292 203.825 369.314 203.72 369.358C203.615 369.401 203.52 369.465 203.44 369.545C203.359 369.626 203.295 369.721 203.252 369.826C203.208 369.931 203.186 370.043 203.186 370.157V370.157V374.521H190.2V370.157C190.2 370.043 190.178 369.931 190.134 369.826C190.091 369.721 190.027 369.626 189.947 369.545C189.866 369.465 189.771 369.401 189.666 369.358C189.561 369.314 189.448 369.292 189.335 369.292H168.558C168.444 369.292 168.331 369.314 168.226 369.358C168.121 369.401 168.026 369.465 167.945 369.545C167.865 369.625 167.801 369.721 167.758 369.826C167.714 369.931 167.692 370.043 167.692 370.157V370.157V374.521H154.706V370.157C154.706 370.043 154.684 369.931 154.64 369.826C154.597 369.721 154.533 369.626 154.453 369.545C154.372 369.465 154.277 369.401 154.172 369.358C154.067 369.314 153.954 369.292 153.841 369.292H133.064C132.95 369.292 132.837 369.314 132.732 369.358C132.627 369.401 132.532 369.465 132.451 369.545C132.371 369.625 132.307 369.721 132.264 369.826C132.22 369.931 132.198 370.043 132.198 370.157V370.157V374.521H119.212V370.157C119.212 370.043 119.19 369.931 119.146 369.826C119.103 369.721 119.039 369.625 118.959 369.545C118.878 369.465 118.783 369.401 118.678 369.358C118.573 369.314 118.46 369.292 118.346 369.292H97.5695C97.3399 369.292 97.1197 369.383 96.9573 369.545C96.795 369.707 96.7038 369.927 96.7038 370.157V374.521H83.7181V370.157C83.7181 370.043 83.6957 369.931 83.6522 369.826C83.6087 369.721 83.545 369.626 83.4646 369.545C83.3842 369.465 83.2888 369.401 83.1838 369.358C83.0787 369.314 82.9661 369.292 82.8524 369.292H62.0754C61.8458 369.292 61.6256 369.383 61.4633 369.545C61.3009 369.707 61.2097 369.928 61.2097 370.157V374.521H21.387C15.8766 374.521 10.5919 376.709 6.6955 380.604C2.79906 384.499 0.610046 389.781 0.610046 395.289V404.68C0.61006 410.188 2.79906 415.47 6.6955 419.365C10.5919 423.26 15.8766 425.448 21.387 425.448H712.223C717.733 425.448 723.018 423.26 726.915 419.365C730.811 415.47 733 410.188 733 404.68V395.289C733 392.562 732.463 389.861 731.418 387.342C730.374 384.822 728.844 382.533 726.915 380.604C724.985 378.676 722.695 377.146 720.174 376.102C717.653 375.059 714.951 374.521 712.223 374.521V374.521Z" fill="#3F3D56"/>
</svg>
